# This file uses centimeters as units for non-parametric coordinates.

mtllib Logo_low_03.mtl
v 2.541535 8.798632 0.000000
v 0.248382 9.902775 0.000000
v 0.208853 9.911502 0.000000
v 0.169589 9.901543 0.000000
v -2.031303 8.757078 0.000000
v 0.210174 7.632950 0.000000
v 2.541535 8.798632 -1.028787
v 0.248382 9.902775 -1.028787
v 0.210174 7.632950 -1.028787
v -2.031303 8.757078 -1.028787
v 0.169589 9.901543 -1.028787
v 0.208853 9.911502 -1.028787
vn 0.000000 0.000000 -1.000000
vn 0.000000 0.000000 -1.000000
vn 0.000000 0.000000 -1.000000
vn -0.000000 0.000000 -1.000000
vn -0.000000 0.000000 -1.000000
vn -0.000000 0.000000 -1.000000
vn 0.000000 0.000000 -1.000000
vn 0.000000 0.000000 -1.000000
vn 0.000000 0.000000 -1.000000
vn 0.000000 0.000000 -1.000000
vn 0.000000 0.000000 1.000000
vn 0.000000 0.000000 1.000000
vn 0.000000 0.000000 1.000000
vn 0.000000 0.000000 1.000000
vn 0.000000 0.000000 1.000000
vn 0.000000 0.000000 1.000000
vn 0.000000 0.000000 1.000000
vn 0.000000 0.000000 1.000000
vn 0.000000 0.000000 1.000000
vn 0.000000 0.000000 1.000000
vn 0.433826 0.900997 0.000000
vn 0.433826 0.900997 0.000000
vn 0.430586 0.902550 0.000000
vn 0.430586 0.902550 0.000000
vn 0.447214 -0.894427 0.000000
vn 0.447214 -0.894427 0.000000
vn 0.447214 -0.894427 0.000000
vn 0.447214 -0.894427 0.000000
vn -0.448295 -0.893886 0.000000
vn -0.448295 -0.893886 0.000000
vn -0.448295 -0.893886 0.000000
vn -0.448295 -0.893886 0.000000
vn -0.458083 0.888909 0.000000
vn -0.458083 0.888909 0.000000
vn -0.461353 0.887217 0.000000
vn -0.461353 0.887217 0.000000
vn -0.015636 0.999878 0.000000
vn -0.015636 0.999878 0.000000
s off
usemtl Logo_low:phong2SG
f 7//1 9//2 8//3
f 10//4 11//5 9//6
f 9//7 11//8 12//9 8//10
usemtl Logo_low:phong3SG
f 1//11 2//12 6//13
f 5//14 6//15 4//16
f 6//17 2//18 3//19 4//20
s 1
usemtl Logo_low:phong1SG
f 1//21 7//22 8//23 2//24
s off
f 6//25 9//26 7//27 1//28
f 5//29 10//30 9//31 6//32
s 1
f 4//33 11//34 10//35 5//36
f 2//24 8//23 12//37 3//38
f 3//38 12//37 11//34 4//33
