# This file uses centimeters as units for non-parametric coordinates.

mtllib Logo_low_02.mtl
v 4.917513 0.851040 0.000000
v 4.949141 1.013095 0.000000
v 4.920222 1.175626 0.000000
v 4.882999 1.250056 0.000000
v 4.830570 1.316189 0.000000
v 4.764112 1.371410 0.000000
v 4.690159 1.411090 0.000000
v 4.529573 1.443728 0.000000
v 4.368415 1.413897 0.000000
v 4.226283 1.321391 0.000000
v 3.838644 1.036901 0.000000
v 3.400318 0.883106 0.000000
v 2.935886 0.864709 0.000000
v 2.469932 0.986414 0.000000
v 2.109971 1.196370 0.000000
v 1.789726 1.520439 0.000000
v 1.560802 1.958860 0.000000
v 1.474801 2.511875 0.000000
v 1.546339 3.009532 0.000000
v 1.747012 3.448559 0.000000
v 2.062717 3.807205 0.000000
v 2.479350 4.063723 0.000000
v 2.939704 4.187361 0.000000
v 3.400828 4.174043 0.000000
v 3.838195 4.028100 0.000000
v 4.227276 3.753861 0.000000
v 4.371179 3.664259 0.000000
v 4.614247 3.647824 0.000000
v 4.765935 3.714694 0.000000
v 4.831342 3.771268 0.000000
v 4.881982 3.838108 0.000000
v 4.937594 3.993707 0.000000
v 4.908034 4.238386 0.000000
v 4.813935 4.375173 0.000000
v 4.219031 4.794360 0.000000
v 3.550535 5.017465 0.000000
v 2.845890 5.037860 0.000000
v 2.142541 4.848921 0.000000
v 1.511079 4.461546 0.000000
v 1.032590 3.921684 0.000000
v 0.728456 3.262071 0.000000
v 0.620060 2.515444 0.000000
v 0.722992 1.773799 0.000000
v 1.024389 1.118847 0.000000
v 1.503017 0.583044 0.000000
v 2.137644 0.198845 0.000000
v 2.850639 0.012755 0.000000
v 3.561370 0.040994 0.000000
v 4.232207 0.276423 0.000000
v 4.825529 0.711901 0.000000
v 4.825529 0.711901 -1.028787
v 4.917513 0.851040 -1.028787
v 4.368415 1.413897 -1.028787
v 4.226283 1.321391 -1.028787
v 4.232207 0.276423 -1.028787
v 3.838644 1.036901 -1.028787
v 3.561370 0.040994 -1.028788
v 3.400318 0.883106 -1.028788
v 2.850639 0.012755 -1.028788
v 2.935886 0.864709 -1.028788
v 2.137644 0.198845 -1.028787
v 2.469932 0.986414 -1.028787
v 1.503017 0.583044 -1.028787
v 2.109971 1.196370 -1.028787
v 1.024389 1.118847 -1.028787
v 1.789726 1.520439 -1.028787
v 0.722992 1.773799 -1.028787
v 1.560802 1.958860 -1.028787
v 0.620060 2.515444 -1.028787
v 1.474801 2.511875 -1.028787
v 0.728456 3.262071 -1.028787
v 1.546339 3.009532 -1.028787
v 1.032590 3.921684 -1.028787
v 1.747012 3.448559 -1.028787
v 1.511079 4.461546 -1.028787
v 2.062717 3.807205 -1.028787
v 2.142541 4.848921 -1.028787
v 2.479350 4.063723 -1.028787
v 2.845890 5.037860 -1.028788
v 2.939704 4.187361 -1.028788
v 3.550535 5.017465 -1.028788
v 3.400828 4.174043 -1.028788
v 4.219031 4.794360 -1.028787
v 3.838195 4.028100 -1.028787
v 4.813935 4.375173 -1.028787
v 4.227276 3.753861 -1.028787
v 4.881982 3.838108 -1.028787
v 4.765935 3.714694 -1.028787
v 4.831342 3.771268 -1.028787
v 4.908034 4.238386 -1.028788
v 4.371179 3.664259 -1.028788
v 4.937594 3.993707 -1.028788
v 4.614247 3.647824 -1.028788
v 4.949141 1.013095 -1.028788
v 4.529573 1.443728 -1.028788
v 4.920222 1.175626 -1.028788
v 4.690159 1.411090 -1.028788
v 4.882999 1.250056 -1.028787
v 4.764112 1.371410 -1.028787
v 4.830570 1.316189 -1.028787
vn 0.000000 0.000000 -1.000000
vn 0.000000 0.000000 -1.000000
vn 0.000000 0.000000 -1.000000
vn 0.000000 0.000000 -1.000000
vn 0.000000 0.000000 -1.000000
vn 0.000000 0.000000 -1.000000
vn 0.000000 0.000000 -1.000000
vn 0.000000 0.000000 -1.000000
vn 0.000000 0.000000 -1.000000
vn 0.000000 0.000000 -1.000000
vn 0.000000 0.000000 -1.000000
vn 0.000000 0.000000 -1.000000
vn -0.000000 0.000000 -1.000000
vn -0.000000 0.000000 -1.000000
vn -0.000000 0.000000 -1.000000
vn -0.000000 0.000000 -1.000000
vn -0.000000 0.000000 -1.000000
vn -0.000000 0.000000 -1.000000
vn -0.000000 0.000000 -1.000000
vn -0.000000 0.000000 -1.000000
vn 0.000000 0.000000 -1.000000
vn 0.000000 0.000000 -1.000000
vn 0.000000 0.000000 -1.000000
vn 0.000000 0.000000 -1.000000
vn 0.000000 0.000000 -1.000000
vn 0.000000 0.000000 -1.000000
vn 0.000000 0.000000 -1.000000
vn 0.000000 0.000000 -1.000000
vn 0.000000 0.000000 -1.000000
vn 0.000000 0.000000 -1.000000
vn 0.000000 0.000000 -1.000000
vn 0.000000 0.000000 -1.000000
vn -0.000000 0.000000 -1.000000
vn -0.000000 0.000000 -1.000000
vn -0.000000 0.000000 -1.000000
vn -0.000000 0.000000 -1.000000
vn 0.000000 0.000000 -1.000000
vn 0.000000 0.000000 -1.000000
vn 0.000000 0.000000 -1.000000
vn 0.000000 0.000000 -1.000000
vn 0.000000 0.000000 -1.000000
vn 0.000000 0.000000 -1.000000
vn 0.000000 0.000000 -1.000000
vn 0.000000 0.000000 -1.000000
vn 0.000000 0.000000 -1.000000
vn 0.000000 0.000000 -1.000000
vn 0.000000 0.000000 -1.000000
vn 0.000000 0.000000 -1.000000
vn 0.000000 0.000000 -1.000000
vn 0.000000 0.000000 -1.000000
vn 0.000000 0.000000 -1.000000
vn 0.000000 0.000000 -1.000000
vn -0.000000 -0.000000 -1.000000
vn -0.000000 -0.000000 -1.000000
vn -0.000000 -0.000000 -1.000000
vn -0.000000 -0.000000 -1.000000
vn -0.000000 0.000000 -1.000000
vn -0.000000 0.000000 -1.000000
vn -0.000000 0.000000 -1.000000
vn -0.000000 0.000000 -1.000000
vn 0.000000 -0.000000 -1.000000
vn 0.000000 -0.000000 -1.000000
vn 0.000000 -0.000000 -1.000000
vn 0.000000 -0.000000 -1.000000
vn 0.000000 0.000000 -1.000000
vn 0.000000 0.000000 -1.000000
vn 0.000000 0.000000 -1.000000
vn 0.000000 0.000000 -1.000000
vn 0.000000 0.000000 -1.000000
vn 0.000000 0.000000 -1.000000
vn 0.000000 0.000000 -1.000000
vn -0.000001 0.000000 -1.000000
vn -0.000001 0.000000 -1.000000
vn -0.000001 0.000000 -1.000000
vn -0.000001 0.000000 -1.000000
vn 0.000000 0.000000 -1.000000
vn 0.000000 0.000000 -1.000000
vn 0.000000 0.000000 -1.000000
vn 0.000000 0.000000 -1.000000
vn 0.000000 -0.000001 -1.000000
vn 0.000000 -0.000001 -1.000000
vn 0.000000 -0.000001 -1.000000
vn 0.000000 -0.000001 -1.000000
vn -0.000001 -0.000001 -1.000000
vn -0.000001 -0.000001 -1.000000
vn -0.000001 -0.000001 -1.000000
vn -0.000001 -0.000001 -1.000000
vn 0.000000 0.000000 -1.000000
vn 0.000000 0.000000 -1.000000
vn 0.000000 0.000000 -1.000000
vn 0.000000 0.000000 -1.000000
vn 0.000000 0.000003 -1.000000
vn 0.000000 0.000003 -1.000000
vn 0.000000 0.000003 -1.000000
vn 0.000000 0.000003 -1.000000
vn 0.000010 0.000000 -1.000000
vn 0.000010 0.000000 -1.000000
vn 0.000010 0.000000 -1.000000
vn 0.000000 0.000000 1.000000
vn 0.000000 0.000000 1.000000
vn 0.000000 0.000000 1.000000
vn 0.000000 0.000000 1.000000
vn 0.000000 0.000000 1.000000
vn 0.000000 0.000000 1.000000
vn 0.000000 0.000000 1.000000
vn 0.000000 0.000000 1.000000
vn 0.000000 0.000000 1.000000
vn 0.000000 0.000000 1.000000
vn 0.000000 0.000000 1.000000
vn 0.000000 0.000000 1.000000
vn 0.000000 0.000000 1.000000
vn 0.000000 0.000000 1.000000
vn 0.000000 0.000000 1.000000
vn 0.000000 0.000000 1.000000
vn 0.000000 0.000000 1.000000
vn 0.000000 0.000000 1.000000
vn 0.000000 0.000000 1.000000
vn 0.000000 0.000000 1.000000
vn 0.000000 0.000000 1.000000
vn 0.000000 0.000000 1.000000
vn 0.000000 0.000000 1.000000
vn 0.000000 0.000000 1.000000
vn 0.000000 0.000000 1.000000
vn 0.000000 0.000000 1.000000
vn 0.000000 0.000000 1.000000
vn 0.000000 0.000000 1.000000
vn 0.000000 0.000000 1.000000
vn 0.000000 0.000000 1.000000
vn 0.000000 0.000000 1.000000
vn 0.000000 0.000000 1.000000
vn 0.000000 0.000000 1.000000
vn 0.000000 0.000000 1.000000
vn 0.000000 0.000000 1.000000
vn 0.000000 0.000000 1.000000
vn 0.000000 0.000000 1.000000
vn 0.000000 0.000000 1.000000
vn 0.000000 0.000000 1.000000
vn 0.000000 0.000000 1.000000
vn 0.000000 0.000000 1.000000
vn 0.000000 0.000000 1.000000
vn 0.000000 0.000000 1.000000
vn 0.000000 0.000000 1.000000
vn 0.000000 0.000000 1.000000
vn 0.000000 0.000000 1.000000
vn 0.000000 0.000000 1.000000
vn 0.000000 0.000000 1.000000
vn 0.000000 0.000000 1.000000
vn 0.000000 0.000000 1.000000
vn 0.000000 0.000000 1.000000
vn 0.000000 0.000000 1.000000
vn 0.000000 0.000000 1.000000
vn 0.000000 0.000000 1.000000
vn 0.000000 0.000000 1.000000
vn 0.000000 0.000000 1.000000
vn 0.000000 0.000000 1.000000
vn 0.000000 0.000000 1.000000
vn 0.000000 0.000000 1.000000
vn 0.000000 0.000000 1.000000
vn 0.000000 0.000000 1.000000
vn 0.000000 0.000000 1.000000
vn 0.000000 0.000000 1.000000
vn 0.000000 0.000000 1.000000
vn 0.000000 0.000000 1.000000
vn 0.000000 0.000000 1.000000
vn 0.000000 0.000000 1.000000
vn 0.000000 0.000000 1.000000
vn 0.000000 0.000000 1.000000
vn 0.000000 0.000000 1.000000
vn 0.000000 0.000000 1.000000
vn 0.000000 0.000000 1.000000
vn 0.000000 0.000000 1.000000
vn 0.000000 0.000000 1.000000
vn 0.000000 0.000000 1.000000
vn 0.000000 0.000000 1.000000
vn 0.000000 0.000000 1.000000
vn 0.000000 0.000000 1.000000
vn 0.000000 0.000000 1.000000
vn 0.000000 0.000000 1.000000
vn 0.000000 0.000000 1.000000
vn 0.000000 0.000000 1.000000
vn 0.000000 0.000000 1.000000
vn 0.000000 0.000000 1.000000
vn 0.000000 0.000000 1.000000
vn 0.000000 0.000000 1.000000
vn 0.000000 0.000000 1.000000
vn 0.000000 0.000000 1.000000
vn 0.000000 0.000000 1.000000
vn 0.000000 0.000000 1.000000
vn 0.000000 0.000000 1.000000
vn 0.000000 0.000000 1.000000
vn 0.000000 0.000000 1.000000
vn 0.000000 0.000000 1.000000
vn 0.000000 0.000000 1.000000
vn 0.000000 0.000000 1.000000
vn 0.000000 0.000000 1.000000
vn 0.000000 0.000000 1.000000
vn 0.642510 -0.766277 0.000000
vn 0.642510 -0.766277 0.000000
vn 0.925120 -0.379675 0.000000
vn 0.925120 -0.379675 0.000000
vn -0.374081 0.927396 0.000000
vn -0.374081 0.927396 0.000000
vn -0.579800 0.814759 0.000000
vn -0.579800 0.814759 0.000000
vn 0.468786 -0.883312 0.000000
vn 0.468786 -0.883312 0.000000
vn -0.468731 0.883341 0.000000
vn -0.468731 0.883341 0.000000
vn 0.187464 -0.982272 0.000000
vn 0.187464 -0.982272 0.000000
vn -0.187362 0.982291 0.000000
vn -0.187362 0.982291 0.000000
vn -0.110197 -0.993910 0.000000
vn -0.110197 -0.993910 0.000000
vn 0.110360 0.993892 0.000000
vn 0.110360 0.993892 0.000000
vn -0.389722 -0.920933 0.000000
vn -0.389722 -0.920933 0.000000
vn 0.372645 0.927974 0.000000
vn 0.372645 0.927974 0.000000
vn -0.637028 -0.770841 0.000000
vn -0.637028 -0.770841 0.000000
vn 0.617519 0.786556 0.000000
vn 0.617519 0.786556 0.000000
vn -0.836501 -0.547965 0.000000
vn -0.836501 -0.547965 0.000000
vn 0.811445 0.584428 0.000000
vn 0.811445 0.584428 0.000000
vn -0.960555 -0.278090 0.000000
vn -0.960555 -0.278090 0.000000
vn 0.953073 0.302739 0.000000
vn 0.953073 0.302739 0.000000
vn -0.999993 0.003671 0.000000
vn -0.999993 0.003671 0.000000
vn 0.999905 0.013764 0.000000
vn 0.999905 0.013764 0.000000
vn -0.959563 0.281494 0.000000
vn -0.959563 0.281494 0.000000
vn 0.960272 -0.279066 0.000000
vn 0.960272 -0.279066 0.000000
vn -0.837497 0.546443 0.000000
vn -0.837497 0.546443 0.000000
vn 0.839457 -0.543427 0.000000
vn 0.839457 -0.543427 0.000000
vn -0.641113 0.767446 0.000000
vn -0.641113 0.767446 0.000000
vn 0.643192 -0.765705 0.000000
vn 0.643192 -0.765705 0.000000
vn -0.396389 0.918083 0.000000
vn -0.396389 0.918083 0.000000
vn 0.397720 -0.917507 0.000000
vn 0.397720 -0.917507 0.000000
vn -0.118857 0.992911 0.000000
vn -0.118857 0.992911 0.000000
vn 0.118872 -0.992910 0.000000
vn 0.118872 -0.992910 0.000000
vn 0.174606 0.984638 0.000000
vn 0.174606 0.984638 0.000000
vn -0.174533 -0.984651 0.000000
vn -0.174533 -0.984651 0.000000
vn 0.453182 0.891418 0.000000
vn 0.453182 0.891418 0.000000
vn -0.453208 -0.891405 0.000000
vn -0.453208 -0.891405 0.000000
vn 0.627976 0.778233 0.000000
vn 0.627976 0.778233 0.000000
vn -0.563805 -0.825908 0.000000
vn -0.563805 -0.825908 0.000000
vn 0.494294 -0.869295 0.000000
vn 0.494294 -0.869295 0.000000
vn 0.728517 -0.685028 0.000000
vn 0.728517 -0.685028 0.000000
vn 0.902343 -0.431018 0.000000
vn 0.902343 -0.431018 0.000000
vn 0.951267 0.308370 0.000000
vn 0.951267 0.308370 0.000000
vn -0.264276 -0.964447 0.000000
vn -0.264276 -0.964447 0.000000
vn 0.997889 -0.064948 0.000000
vn 0.997889 -0.064948 0.000000
vn 0.126732 -0.991937 0.000000
vn 0.126733 -0.991937 0.000000
vn 0.999965 -0.008346 0.000000
vn 0.999965 -0.008346 0.000000
vn 0.008724 0.999962 0.000000
vn 0.008724 0.999962 0.000000
vn 0.963182 0.268851 0.000000
vn 0.963182 0.268851 0.000000
vn 0.294652 0.955605 0.000000
vn 0.294652 0.955605 0.000000
vn 0.843111 0.537740 0.000000
vn 0.843111 0.537740 0.000000
vn 0.559972 0.828511 0.000000
vn 0.559972 0.828511 0.000000
vn 0.714331 0.699808 0.000000
vn 0.714331 0.699808 0.000000
s off
usemtl Logo_low:phong2SG
f 51//1 54//2 53//3 52//4
f 55//5 56//6 54//7 51//8
f 57//9 58//10 56//11 55//12
f 59//13 60//14 58//15 57//16
f 61//17 62//18 60//19 59//20
f 63//21 64//22 62//23 61//24
f 65//25 66//26 64//27 63//28
f 67//29 68//30 66//31 65//32
f 69//33 70//34 68//35 67//36
f 71//37 72//38 70//39 69//40
f 73//41 74//42 72//43 71//44
f 75//45 76//46 74//47 73//48
f 77//49 78//50 76//51 75//52
f 79//53 80//54 78//55 77//56
f 81//57 82//58 80//59 79//60
f 83//61 84//62 82//63 81//64
f 85//65 86//66 84//67 83//68
f 87//69 89//70 88//71
f 90//72 91//73 86//74 85//75
f 92//76 93//77 91//78 90//79
f 87//80 88//81 93//82 92//83
f 52//84 53//85 95//86 94//87
f 94//88 95//89 97//90 96//91
f 97//92 99//93 98//94 96//95
f 99//96 100//97 98//98
usemtl Logo_low:phong3SG
f 50//99 1//100 9//101 10//102
f 49//103 50//104 10//105 11//106
f 48//107 49//108 11//109 12//110
f 47//111 48//112 12//113 13//114
f 46//115 47//116 13//117 14//118
f 45//119 46//120 14//121 15//122
f 44//123 45//124 15//125 16//126
f 43//127 44//128 16//129 17//130
f 42//131 43//132 17//133 18//134
f 41//135 42//136 18//137 19//138
f 40//139 41//140 19//141 20//142
f 39//143 40//144 20//145 21//146
f 38//147 39//148 21//149 22//150
f 37//151 38//152 22//153 23//154
f 36//155 37//156 23//157 24//158
f 35//159 36//160 24//161 25//162
f 34//163 35//164 25//165 26//166
f 31//167 29//168 30//169
f 33//170 34//171 26//172 27//173
f 32//174 33//175 27//176 28//177
f 31//178 32//179 28//180 29//181
f 1//182 2//183 8//184 9//185
f 2//186 3//187 7//188 8//189
f 7//190 3//191 4//192 6//193
f 6//194 4//195 5//196
s 1
usemtl Logo_low:phong1SG
f 50//197 51//198 52//199 1//200
f 9//201 53//202 54//203 10//204
f 49//205 55//206 51//198 50//197
f 10//204 54//203 56//207 11//208
f 48//209 57//210 55//206 49//205
f 11//208 56//207 58//211 12//212
f 47//213 59//214 57//210 48//209
f 12//212 58//211 60//215 13//216
f 46//217 61//218 59//214 47//213
f 13//216 60//215 62//219 14//220
f 45//221 63//222 61//218 46//217
f 14//220 62//219 64//223 15//224
f 44//225 65//226 63//222 45//221
f 15//224 64//223 66//227 16//228
f 43//229 67//230 65//226 44//225
f 16//228 66//227 68//231 17//232
f 42//233 69//234 67//230 43//229
f 17//232 68//231 70//235 18//236
f 41//237 71//238 69//234 42//233
f 18//236 70//235 72//239 19//240
f 40//241 73//242 71//238 41//237
f 19//240 72//239 74//243 20//244
f 39//245 75//246 73//242 40//241
f 20//244 74//243 76//247 21//248
f 38//249 77//250 75//246 39//245
f 21//248 76//247 78//251 22//252
f 37//253 79//254 77//250 38//249
f 22//252 78//251 80//255 23//256
f 36//257 81//258 79//254 37//253
f 23//256 80//255 82//259 24//260
f 35//261 83//262 81//258 36//257
f 24//260 82//259 84//263 25//264
f 34//265 85//266 83//262 35//261
f 25//264 84//263 86//267 26//268
f 29//269 88//270 89//271 30//272
f 30//272 89//271 87//273 31//274
f 33//275 90//276 85//266 34//265
f 26//268 86//267 91//277 27//278
f 32//279 92//280 90//276 33//275
f 27//278 91//277 93//281 28//282
f 31//274 87//273 92//280 32//279
f 28//282 93//281 88//270 29//269
f 1//200 52//199 94//283 2//284
f 8//285 95//286 53//202 9//201
f 2//284 94//283 96//287 3//288
f 7//289 97//290 95//286 8//285
f 3//288 96//287 98//291 4//292
f 6//293 99//294 97//290 7//289
f 4//292 98//291 100//295 5//296
f 5//296 100//295 99//294 6//293
